<svg width="163" height="33" viewBox="0 0 163 33" fill="none" xmlns="http://www.w3.org/2000/svg">
<g clip-path="url(#clip0_539_450)">
<path d="M141.261 25.2109C153.267 25.2109 163 15.4778 163 3.47168H154.849C154.849 10.9748 148.766 17.058 141.261 17.058V25.2109Z" fill="#0018EE"/>
<path d="M124.955 25.2109C124.955 13.2047 134.688 3.47168 146.694 3.47168V11.6228C139.191 11.6228 133.108 17.7059 133.108 25.2109H124.955Z" fill="#00B0FF"/>
<path d="M0.588519 18.9299C3.09018 20.402 5.99678 21.0266 7.72634 21.0266C9.27233 21.0266 10.192 20.6234 10.192 19.63C10.192 18.2315 8.16908 18.3773 5.44605 17.679C2.02292 16.8331 0 15.3969 0 12.4165C0.0359951 8.59027 3.42133 6.41797 7.91171 6.41797C10.0822 6.41797 12.7692 6.86071 14.83 7.85417V12.6739C12.4381 11.3133 9.64128 10.7248 8.0215 10.7248C6.5493 10.7248 5.66562 11.1657 5.66562 12.0116C5.66562 13.3362 7.61655 13.2264 10.3036 13.8887C13.7627 14.7346 15.8594 16.0592 15.8594 19.1872C15.8234 23.1611 12.3643 25.3334 7.72634 25.3334C5.55584 25.3334 2.75902 24.8906 0.588519 23.8234V18.9299Z" fill="white"/>
<path d="M18.5195 0H24.1131V14.5132H24.1869L30.5148 6.82286H36.8805L29.9641 14.9181L37.3971 24.9266H30.7722L24.1869 15.692H24.1131V24.9266H18.5195V0Z" fill="white"/>
<path d="M40.1201 32.0499H42.3986C45.3214 32.0499 47.949 30.2627 49.0235 27.5433L49.0667 27.4335L57.2051 6.82275H51.4819L47.2957 18.4672L43.1491 6.82275H37.4619L44.5277 24.8527L44.1155 25.8407C43.7484 26.7244 42.8827 27.3021 41.9252 27.3021H40.1201V32.0499Z" fill="white"/>
<path d="M66.877 6.41797C72.6542 6.41797 76.9592 10.5394 76.9592 15.8757C76.9592 21.2119 72.6542 25.3316 66.877 25.3316C61.0998 25.3316 56.7948 21.2101 56.7948 15.8757C56.7948 10.5412 61.0998 6.41797 66.877 6.41797ZM66.877 20.5118C69.4165 20.5118 71.3656 18.4511 71.3656 15.8757C71.3656 13.3002 69.4165 11.2395 66.877 11.2395C64.3376 11.2395 62.3866 13.3002 62.3866 15.8757C62.3866 18.4511 64.3376 20.5118 66.877 20.5118Z" fill="white"/>
<path d="M79.1495 6.82291H84.6694V8.51648H84.7431C86.1416 7.37544 88.0547 6.41797 90.3368 6.41797C92.2499 6.41797 93.9417 7.08028 95.0827 8.25732C96.186 9.43615 96.6647 11.0181 96.6647 13.6314V24.9266H91.0729V14.5511C91.0729 13.1886 90.8875 12.5263 90.4466 12.0116C89.9678 11.4591 89.3055 11.2395 88.5334 11.2395C87.0972 11.2395 85.7366 11.9738 84.7431 12.7477V24.9266H79.1495V6.82291Z" fill="white"/>
<path d="M104.222 17.3479C104.848 19.8495 106.909 20.9906 109.484 20.9906C111.507 20.9906 113.716 20.2905 115.631 19.0036V23.6758C113.863 24.7808 111.14 25.3334 108.748 25.3334C102.787 25.3334 98.4825 21.6169 98.4825 15.9495C98.4825 10.282 102.971 6.41797 107.976 6.41797C112.429 6.41797 116.622 9.36236 116.622 15.4347C116.622 16.0592 116.586 16.8691 116.512 17.3479H104.222ZM111.471 13.815C111.14 11.864 109.706 10.687 107.902 10.687C106.099 10.687 104.665 11.7542 104.186 13.815H111.471Z" fill="white"/>
</g>
<defs>
<clipPath id="clip0_539_450">
<rect width="163" height="32.05" fill="white"/>
</clipPath>
</defs>
</svg>
