<svg width="36" height="36" viewBox="0 0 36 36" fill="none" xmlns="http://www.w3.org/2000/svg">
<circle cx="18" cy="18" r="17.5" stroke="#EEEEEE"/>
<path d="M9 13.5C9 12.6716 9.67157 12 10.5 12H25.5C26.3284 12 27 12.6716 27 13.5C27 14.3284 26.3284 15 25.5 15H10.5C9.67157 15 9 14.3284 9 13.5Z" fill="#00B0FF"/>
<path d="M9 18.5C9 17.6716 9.67157 17 10.5 17H25.5C26.3284 17 27 17.6716 27 18.5C27 19.3284 26.3284 20 25.5 20H10.5C9.67157 20 9 19.3284 9 18.5Z" fill="#00B0FF"/>
<path d="M9 23.5C9 22.6716 9.67157 22 10.5 22H25.5C26.3284 22 27 22.6716 27 23.5C27 24.3284 26.3284 25 25.5 25H10.5C9.67157 25 9 24.3284 9 23.5Z" fill="#00B0FF"/>
</svg>
