<svg width="13" height="13" viewBox="0 0 13 13" fill="none" xmlns="http://www.w3.org/2000/svg">
<path d="M5.46223 0.780326C5.89319 0.349364 6.59192 0.349364 7.02288 0.780326L11.7048 5.46228C12.1358 5.89324 12.1358 6.59197 11.7048 7.02293C11.2739 7.45389 10.5751 7.45389 10.1442 7.02293L5.46223 2.34098C5.03127 1.91002 5.03127 1.21129 5.46223 0.780326Z" fill="white"/>
<path d="M5.78033 12.023C5.34936 11.592 5.34936 10.8933 5.78033 10.4623L10.4623 5.7804C10.8932 5.34943 11.592 5.34943 12.0229 5.7804C12.4539 6.21136 12.4539 6.91008 12.0229 7.34105L7.34098 12.023C6.91002 12.454 6.21129 12.454 5.78033 12.023Z" fill="white"/>
</svg>
