<svg width="13" height="13" viewBox="0 0 13 13" fill="none" xmlns="http://www.w3.org/2000/svg">
<path d="M7.34099 12.0229C6.91003 12.4539 6.21131 12.4539 5.78034 12.0229L1.09839 7.34094C0.667427 6.90998 0.667426 6.21125 1.09839 5.78029C1.52935 5.34933 2.22808 5.34933 2.65904 5.78029L7.34099 10.4622C7.77196 10.8932 7.77196 11.5919 7.34099 12.0229Z" fill="white"/>
<path d="M7.0229 0.780221C7.45386 1.21118 7.45386 1.90991 7.0229 2.34087L2.34094 7.02283C1.90998 7.45379 1.21125 7.45379 0.780292 7.02283C0.34933 6.59187 0.34933 5.89314 0.780292 5.46218L5.46224 0.780222C5.89321 0.34926 6.59193 0.349259 7.0229 0.780221Z" fill="white"/>
</svg>
